<svg width="20.000000" height="20.000000" viewBox="0 0 20 20" fill="none" xmlns="http://www.w3.org/2000/svg" xmlns:xlink="http://www.w3.org/1999/xlink">
	<desc>
			Created with Pixso.
	</desc>
	<defs/>
	<path id="Vector" d="M14.03 11.27C15.34 10.08 16.2 8.39 16.2 6.39C16.2 2.87 13.41 0 10 0C6.58 0 3.79 2.87 3.79 6.39C3.79 8.39 4.65 10.08 5.96 11.27C2.79 12.79 0.38 16.08 0 20L2.32 20C2.86 15.91 6.12 12.79 10 12.79C13.87 12.79 17.13 15.91 17.67 20L20 20C19.61 16.08 17.2 12.79 14.03 11.27ZM6.12 6.39C6.12 4.16 7.82 2.39 10 2.39C12.17 2.39 13.87 4.16 13.87 6.39C13.87 8.64 12.17 10.39 10 10.39C7.82 10.39 6.12 8.64 6.12 6.39Z" fill="#252D35" fill-opacity="1.000000" fill-rule="evenodd"/>
</svg>
