<svg width="20.000000" height="20.000000" viewBox="0 0 20 20" fill="none" xmlns="http://www.w3.org/2000/svg" xmlns:xlink="http://www.w3.org/1999/xlink">
	<desc>
			Created with Pixso.
	</desc>
	<defs/>
	<path id="Vector" d="M14.48 20C13.57 20 12.46 19.79 11.36 19.29C9.35 18.49 7.03 16.89 5.02 14.89C3.01 12.89 1.5 10.69 0.6 8.59C0.2 7.59 0 6.49 0 5.59C0 4.39 0.4 3.29 1.1 2.58L2.71 0.98C4.02 -0.32 6.13 -0.32 7.54 0.88L9.85 3.18C10.76 4.09 11.06 5.29 10.76 6.49C10.55 7.49 9.85 8.29 8.95 8.69C9.25 9.09 9.55 9.59 10.05 9.99C10.45 10.39 10.96 10.69 11.26 10.89C11.66 9.99 12.46 9.39 13.47 9.19C14.68 8.89 15.98 9.19 16.79 10.09L19 12.29C20.31 13.59 20.31 15.79 19.1 17.19L19.1 17.29L17.59 18.79C16.79 19.59 15.78 20 14.48 20ZM5.12 1.98C4.72 1.98 4.42 2.08 4.12 2.38L2.61 3.89C2.21 4.29 2.01 4.89 2.01 5.59C2.01 6.29 2.21 6.99 2.51 7.89C3.21 9.69 4.62 11.69 6.43 13.49C8.24 15.29 10.25 16.69 12.06 17.49C12.97 17.89 13.77 18.09 14.38 17.99C15.08 17.99 15.68 17.79 15.98 17.39L17.49 15.89C18 15.29 18.1 14.39 17.49 13.69L15.28 11.49C14.88 11.09 14.38 10.99 13.77 11.09C13.27 11.19 12.87 11.59 12.77 11.99C12.46 12.69 11.76 13.09 11.06 12.99C10.25 12.79 9.35 12.19 8.44 11.39C7.74 10.59 7.14 9.69 7.03 8.89C6.93 8.59 6.93 8.19 7.14 7.89C7.34 7.59 7.64 7.29 7.94 7.19C8.44 6.99 8.84 6.69 8.95 6.19C9.05 5.59 8.95 4.99 8.54 4.69L6.23 2.38C5.93 2.18 5.53 1.98 5.12 1.98Z" fill="#252D35" fill-opacity="1.000000" fill-rule="evenodd"/>
</svg>
