<svg width="20.000000" height="14.000000" viewBox="0 0 20 14" fill="none" xmlns="http://www.w3.org/2000/svg" xmlns:xlink="http://www.w3.org/1999/xlink">
	<desc>
			Created with Pixso.
	</desc>
	<defs/>
	<path id="Vector" d="M19.14 1.32C18.6 0.35 18.01 0.18 16.81 0.11C15.62 0.03 12.61 0 10 0C7.38 0 4.37 0.03 3.18 0.11C1.98 0.18 1.39 0.35 0.84 1.32C0.28 2.28 0 3.94 0 6.87C0 6.87 0 6.87 0 6.87C0 6.87 0 6.87 0 6.87L0 6.88C0 9.79 0.28 11.46 0.84 12.41C1.39 13.38 1.98 13.55 3.17 13.63C4.37 13.7 7.38 13.75 10 13.75C12.61 13.75 15.62 13.7 16.82 13.64C18.02 13.55 18.6 13.38 19.15 12.41C19.71 11.46 20 9.79 20 6.88C20 6.88 20 6.87 20 6.87L20 6.87C20 3.94 19.71 2.28 19.14 1.32ZM7.5 10.62L7.5 3.12L13.75 6.87L7.5 10.62Z" fill="#FFFFFF" fill-opacity="1.000000" fill-rule="evenodd"/>
</svg>
